<svg width="50" height="50" viewBox="0 0 50 50" fill="none" xmlns="http://www.w3.org/2000/svg">
<path d="M25 50C38.8071 50 50 38.8071 50 25C50 11.1929 38.8071 0 25 0C11.1929 0 0 11.1929 0 25C0 38.8071 11.1929 50 25 50Z" fill="url(#paint0_linear_13_463)"/>
<path d="M31.2501 26.591L40.3778 35.7187C40.2635 35.7393 40.1456 35.75 40.0251 35.75H9.97512C9.8546 35.75 9.73676 35.7393 9.62243 35.7187L18.7501 26.591L20.8713 28.7122C21.9366 29.7775 23.343 30.2917 25.0001 30.2917C26.6573 30.2917 28.0636 29.7775 29.129 28.7122L31.2501 26.591ZM41.9688 34.1277L32.8411 25L41.9688 15.8723C41.9894 15.9866 42.0001 16.1045 42.0001 16.225V33.775C42.0001 33.8955 41.9894 34.0134 41.9688 34.1277ZM17.1591 25L8.03144 34.1277C8.01087 34.0134 8.00012 33.8955 8.00012 33.775V16.225C8.00012 16.1045 8.01087 15.9866 8.03144 15.8723L17.1591 25ZM40.0251 14.25C40.1456 14.25 40.2635 14.2607 40.3778 14.2813L27.538 27.1212C26.9399 27.7193 26.1262 28.0417 25.0001 28.0417C23.8741 28.0417 23.0604 27.7193 22.4623 27.1212L9.62243 14.2813C9.73675 14.2607 9.8546 14.25 9.97512 14.25H40.0251Z" fill="white" stroke="white"/>
<defs>
<linearGradient id="paint0_linear_13_463" x1="2500" y1="0" x2="2500" y2="5000" gradientUnits="userSpaceOnUse">
<stop stop-color="#1D6FF2"/>
<stop offset="1" stop-color="#1AC8FC"/>
</linearGradient>
</defs>
</svg>
