<svg width="114" height="20" viewBox="0 0 114 20" fill="none" xmlns="http://www.w3.org/2000/svg">
<path d="M0.333636 8.93651C0.298572 12.6182 3.25478 15.6313 6.93651 15.6664C10.6182 15.7014 13.6313 12.7452 13.6664 9.06349C13.7014 5.38176 10.7452 2.3687 7.06349 2.33364C3.38176 2.29857 0.3687 5.25478 0.333636 8.93651ZM112.875 10.8923C113.368 10.4088 113.376 9.61736 112.892 9.12457L105.013 1.09423C104.53 0.601444 103.739 0.593906 103.246 1.07739C102.753 1.56087 102.745 2.3523 103.229 2.84508L110.232 9.98316L103.094 16.9866C102.601 17.4701 102.594 18.2615 103.077 18.7543C103.561 19.247 104.352 19.2546 104.845 18.7711L112.875 10.8923ZM6.9881 10.2499L111.988 11.2499L112.012 8.75006L7.0119 7.75006L6.9881 10.2499Z" fill="#4C6EF5"/>
</svg>
