<svg width="483" height="280" viewBox="0 0 483 280" fill="none" xmlns="http://www.w3.org/2000/svg">
<g clip-path="url(#clip0_25_35)">
<path opacity="0.2" d="M207.616 117.957C147.104 101.463 108.818 53.6947 97.2386 31.8726C65.7721 -8.15293 7.26285 -10.9285 1.05604 30.8329C-5.15076 72.5943 26.1329 150.739 74.8129 210.745C123.493 270.75 243.414 283.29 287.111 277.912C330.809 272.533 473.909 217.307 481.217 183.558C488.525 149.808 465.648 144.148 431.645 137.492C397.642 130.836 283.255 138.574 207.616 117.957Z" fill="#4C6EF5"/>
<path d="M162.001 75.0494C162.028 75.601 162.498 76.0261 163.049 75.9988L172.038 75.5544C172.59 75.5271 173.015 75.0579 172.988 74.5063C172.961 73.9546 172.491 73.5296 171.94 73.5569L163.949 73.9518L163.554 65.9616C163.527 65.41 163.058 64.9849 162.506 65.0122C161.955 65.0395 161.53 65.5087 161.557 66.0604L162.001 75.0494ZM278.277 24.0392C257.034 17.91 239.961 17.197 222.171 24.7546C204.451 32.2823 186.134 47.9705 162.259 74.3287L163.741 75.6713C187.587 49.345 205.659 33.942 222.953 26.5953C240.177 19.2785 256.743 19.9077 277.723 25.9608L278.277 24.0392Z" fill="#F06595"/>
</g>
<defs>
<clipPath id="clip0_25_35">
<rect width="483" height="280" fill="white"/>
</clipPath>
</defs>
</svg>
