<svg width="550" height="584" viewBox="0 0 550 584" fill="none" xmlns="http://www.w3.org/2000/svg">
<g clip-path="url(#clip0_25_349)">
<path opacity="0.4" d="M136.35 559.703C70.955 594.734 9.183 590.901 -63.9919 554.547C-137.76 512.749 -156.827 475.903 -159.97 388.068C-161.964 332.337 -65.0179 271.095 -57.043 205.412C-49.068 139.729 -61.7143 86.5188 -9.877 38.2185C24.615 6.07948 196.682 -34.6999 254.571 52.0448C322.781 154.257 359.451 133.999 428.146 164.393C534.334 211.375 592.102 346.459 513.667 426.588C460.1 481.311 368.802 445.369 301.679 457.369C234.556 469.37 218.093 515.914 136.35 559.703Z" fill="#69CECF"/>
</g>
<defs>
<clipPath id="clip0_25_349">
<rect width="710" height="584" fill="white" transform="translate(-160)"/>
</clipPath>
</defs>
</svg>
