<svg width="1641" height="916" viewBox="0 0 1641 916" fill="none" xmlns="http://www.w3.org/2000/svg">
<g clip-path="url(#clip0_2019_19)">
<path opacity="0.2" d="M863.276 470.835C1055.49 481.035 1201.36 599.742 1250.26 657.82C1370.64 757.687 1547.94 727.939 1539.43 598.326C1530.94 468.711 1386.34 254.103 1201.36 105.366C1016.37 -43.3717 648.519 -2.99993 520.943 41.6213C393.364 86.2427 -0.000375499 345.471 -0.000366211 451.713C-0.000356923 557.954 72.2936 560.078 178.608 557.954C284.923 555.829 623.004 458.087 863.276 470.835Z" fill="#1BC3E6"/>
</g>
<g clip-path="url(#clip1_2019_19)">
<path opacity="0.2" d="M732.721 421.37C530.484 410.64 377.016 285.744 325.561 224.638C198.907 119.565 12.3618 150.864 21.3103 287.235C30.2589 423.606 182.384 649.401 377.016 805.892C571.647 962.384 958.672 919.907 1092.9 872.96C1227.13 826.013 1641 553.27 1641 441.491C1641 329.711 1564.94 327.475 1453.08 329.711C1341.22 331.947 985.518 434.784 732.721 421.37Z" fill="#6F4BFF"/>
</g>
<defs>
<clipPath id="clip0_2019_19">
<rect width="1540" height="718.278" fill="white"/>
</clipPath>
<clipPath id="clip1_2019_19">
<rect width="1620" height="754" fill="white" transform="translate(21 162)"/>
</clipPath>
</defs>
</svg>
