<svg width="383" height="352" viewBox="0 0 383 352" fill="none" xmlns="http://www.w3.org/2000/svg">
<g clip-path="url(#clip0_34_97)">
<path opacity="0.4" d="M151.938 56.6097C174.281 19.7898 206.289 3.47704 253.601 0.0648922C302.817 -0.7993 323.228 12.0025 350.736 55.0069C368.19 82.2929 337.816 141.533 353.226 176.739C368.636 211.944 390.67 234.826 379.022 274.281C371.271 300.535 297.305 371.711 242.754 345.408C178.476 314.415 166.13 335.369 122.817 340.44C55.8652 348.279 -12.9 297.764 2.6443 234.539C13.2601 191.361 69.5088 182.394 99.5166 156.583C129.524 130.772 124.009 102.634 151.938 56.6097Z" fill="#4C6EF5"/>
</g>
<defs>
<clipPath id="clip0_34_97">
<rect width="383" height="352" fill="white"/>
</clipPath>
</defs>
</svg>
