<svg width="784" height="584" viewBox="0 0 784 584" fill="none" xmlns="http://www.w3.org/2000/svg">
<g clip-path="url(#clip0_31_378)">
<path opacity="0.2" d="M221.571 13.4113C159.677 -16.8337 109.381 10.0616 91.6156 35.2658C55.8155 65.5107 66.8212 139.432 77.1532 164.637C92.0535 194.996 123.28 227.59 77.1532 269.463C42.5322 300.891 -13.0581 274.715 2.77386 375.746C10.2279 423.313 128.213 326.173 147.699 453.65C154.267 496.624 176.861 528.26 331.594 543.726C486.327 559.192 469.211 519.152 633.621 578.797C676.376 594.308 735.921 572.94 757.842 543.726C787.97 503.575 790.502 467.387 773.452 416.263C755.436 362.242 689.319 376.065 692.647 326.172C695.974 276.28 773.452 280.066 773.452 219.627C773.452 147.452 733.85 109.104 653.045 91.2589C531.336 64.3815 505.248 154.326 386.619 147.452C267.991 140.578 298.937 51.2174 221.571 13.4113Z" fill="#F06595"/>
</g>
<defs>
<clipPath id="clip0_31_378">
<rect width="784" height="584" fill="white"/>
</clipPath>
</defs>
</svg>
