<svg width="1522" height="1007" viewBox="0 0 1522 1007" fill="none" xmlns="http://www.w3.org/2000/svg">
<path opacity="0.2" d="M1091.86 983.875C1212.01 1036.03 1309.66 989.647 1344.14 946.188C1413.64 894.036 1392.28 766.574 1372.22 723.114C1343.29 670.765 1282.67 614.562 1372.22 542.36C1439.43 488.169 1547.35 533.305 1516.62 359.096C1502.14 277.075 1273.1 444.576 1235.27 224.765C1222.52 150.664 1178.66 96.1143 878.266 69.4459C577.879 42.7773 611.107 111.819 291.933 8.9718C208.933 -17.7735 93.337 19.0721 50.7806 69.4459C-7.70758 138.678 -12.6219 201.077 20.4775 289.232C55.4525 382.381 183.807 358.547 177.346 444.576C170.886 530.606 20.4775 524.078 20.4775 628.293C20.4774 752.746 97.3571 818.87 254.226 849.64C490.502 895.98 541.147 740.894 771.444 752.746C1001.74 764.599 941.663 918.687 1091.86 983.875Z" fill="#F06595"/>
</svg>
