<svg width="401" height="584" viewBox="0 0 401 584" fill="none" xmlns="http://www.w3.org/2000/svg">
<g clip-path="url(#clip0_42_154)">
<path opacity="0.4" d="M296.35 559.703C230.955 594.734 169.183 590.901 96.0081 554.547C22.2395 512.749 3.17318 475.903 0.0303381 388.068C-1.96377 332.337 94.9821 271.095 102.957 205.412C110.932 139.729 98.2857 86.5188 150.123 38.2185C184.615 6.07948 356.682 -34.6999 414.571 52.0448C482.781 154.257 519.451 133.999 588.146 164.393C694.334 211.375 752.102 346.459 673.667 426.588C620.1 481.311 528.802 445.369 461.679 457.369C394.556 469.37 378.093 515.914 296.35 559.703Z" fill="#69CECF"/>
</g>
<defs>
<clipPath id="clip0_42_154">
<rect width="710" height="584" fill="white"/>
</clipPath>
</defs>
</svg>
