<svg width="608" height="584" viewBox="0 0 608 584" fill="none" xmlns="http://www.w3.org/2000/svg">
<g clip-path="url(#clip0_31_380)">
<path opacity="0.4" d="M194.35 559.703C128.955 594.734 67.183 590.901 -5.9919 554.547C-79.7605 512.749 -98.8268 475.903 -101.97 388.068C-103.964 332.337 -7.0179 271.095 0.957001 205.412C8.932 139.729 -3.71429 86.5188 48.123 38.2185C82.615 6.07948 254.682 -34.6999 312.571 52.0448C380.781 154.257 417.451 133.999 486.146 164.393C592.334 211.375 650.102 346.459 571.667 426.588C518.1 481.311 426.802 445.369 359.679 457.369C292.556 469.37 276.093 515.914 194.35 559.703Z" fill="#4C6EF5"/>
</g>
<defs>
<clipPath id="clip0_31_380">
<rect width="710" height="584" fill="white" transform="translate(-102)"/>
</clipPath>
</defs>
</svg>
