<svg width="784" height="585" viewBox="0 0 784 585" fill="none" xmlns="http://www.w3.org/2000/svg">
<g clip-path="url(#clip0_25_347)">
<path opacity="0.2" d="M221.571 14.3497C159.677 -15.8953 109.381 11 91.6156 36.2042C55.8155 66.4492 66.8212 140.371 77.1532 165.575C92.0535 195.934 123.28 228.529 77.1532 270.401C42.5322 301.83 -13.0581 275.653 2.77386 376.684C10.2279 424.252 128.213 327.111 147.699 454.588C154.267 497.562 176.861 529.198 331.594 544.664C486.327 560.13 469.211 520.09 633.621 579.735C676.376 595.246 735.921 573.878 757.842 544.664C787.97 504.513 790.502 468.326 773.452 417.201C755.436 363.18 689.319 377.003 692.647 327.111C695.974 277.218 773.452 281.004 773.452 220.566C773.452 148.39 733.85 110.042 653.045 92.1973C531.336 65.3201 505.248 155.264 386.619 148.39C267.991 141.516 298.937 52.1559 221.571 14.3497Z" fill="#69CECF"/>
</g>
<defs>
<clipPath id="clip0_25_347">
<rect width="784" height="585" fill="white"/>
</clipPath>
</defs>
</svg>
