<svg width="320" height="263" viewBox="0 0 320 263" fill="none" xmlns="http://www.w3.org/2000/svg">
<g clip-path="url(#clip0_34_95)">
<path opacity="0.4" d="M101.602 244.251C68.1499 246.648 43.3685 233.667 19.8866 205.155C-2.83491 174.284 -3.8991 155.553 11.0222 118.707C20.4896 95.3281 71.8002 87.9314 87.2188 62.2833C102.637 36.6352 107.244 12.3319 137.551 1.95469C157.718 -4.9503 236.248 9.96346 244.118 56.4611C253.391 111.25 272.263 109.652 294.997 134.878C330.138 173.87 329.033 240.305 281.873 258.915C249.666 271.626 218.63 239.938 188.717 232.508C158.804 225.076 143.417 241.256 101.602 244.251Z" fill="#4C6EF5"/>
</g>
<defs>
<clipPath id="clip0_34_95">
<rect width="319.627" height="263" fill="white"/>
</clipPath>
</defs>
</svg>
