<svg width="288" height="242" viewBox="0 0 288 242" fill="none" xmlns="http://www.w3.org/2000/svg">
<g clip-path="url(#clip0_34_91)">
<path opacity="0.4" d="M127.286 227.832C102.059 244.395 76.8943 245.072 45.9352 232.977C14.5387 218.697 5.48287 204.449 1.0356 168.955C-1.78616 146.435 35.2768 118.108 36.1342 91.1934C36.9916 64.2786 29.9454 43.1647 49.2009 21.7126C62.0135 7.43826 130.25 -15.3069 156.837 17.7674C188.165 56.7394 202.288 47.2027 231.218 57.0431C275.935 72.254 304.221 124.928 275.339 160.244C255.615 184.362 217.329 173.089 190.569 180.378C163.809 187.667 158.821 207.129 127.286 227.832Z" fill="#4C6EF5"/>
</g>
<defs>
<clipPath id="clip0_34_91">
<rect width="288" height="242" fill="white"/>
</clipPath>
</defs>
</svg>
