<svg width="50" height="50" viewBox="0 0 50 50" fill="none" xmlns="http://www.w3.org/2000/svg">
<g clip-path="url(#clip0_31_395)">
<path d="M0 25C0 11.1927 11.1927 0 25 0C38.8073 0 50 11.1927 50 25C50 38.8073 38.8073 50 25 50C11.1927 50 0 38.8073 0 25Z" fill="#F9F9F9"/>
<path d="M27.7042 30.6665L31.4407 34.2738C31.622 34.446 31.7664 34.6533 31.8651 34.883C31.9638 35.1128 32.0147 35.3602 32.0147 35.6103C32.0147 35.8604 31.9638 36.1078 31.8651 36.3376C31.7664 36.5673 31.622 36.7746 31.4407 36.9468C31.0676 37.3022 30.5721 37.5004 30.0568 37.5004C29.5415 37.5004 29.046 37.3022 28.6729 36.9468L24.999 33.402L21.3292 36.9468C20.9563 37.3032 20.4596 37.5011 19.9438 37.4988C19.4282 37.5011 18.9319 37.3032 18.5594 36.9468C18.3782 36.7745 18.2339 36.5672 18.1353 36.3375C18.0367 36.1077 17.9858 35.8603 17.9858 35.6103C17.9858 35.3603 18.0367 35.1129 18.1353 34.8831C18.2339 34.6534 18.3782 34.4461 18.5594 34.2738L22.2959 30.6665C20.9258 30.3658 19.6146 29.8418 18.4146 29.1155C17.5 28.5593 17.225 27.3926 17.8011 26.5093C18.3761 25.6238 19.5844 25.3582 20.5011 25.9155C23.2365 27.5759 26.7615 27.577 29.499 25.9155C30.4157 25.3582 31.624 25.6238 32.199 26.5093C32.775 27.3915 32.5 28.5593 31.5844 29.1155C30.385 29.8424 29.074 30.3657 27.7042 30.6665Z" fill="#F06595"/>
<path fill-rule="evenodd" clip-rule="evenodd" d="M18.3 18.9521C18.3 22.5083 21.2969 25.401 24.9834 25.401C28.6698 25.401 31.6667 22.5083 31.6667 18.9521C31.6667 15.3938 28.6698 12.5 24.9834 12.5C21.2969 12.5 18.3 15.3938 18.3 18.9521ZM27.75 18.9521C27.75 17.4781 26.5094 16.2812 24.9834 16.2812C23.4584 16.2812 22.2157 17.4792 22.2157 18.9521C22.2157 20.424 23.4584 21.6219 24.9834 21.6219C26.5094 21.6219 27.75 20.424 27.75 18.9521Z" fill="#F06595"/>
</g>
<defs>
<clipPath id="clip0_31_395">
<rect width="50" height="50" fill="white"/>
</clipPath>
</defs>
</svg>
