<svg width="50" height="50" viewBox="0 0 50 50" fill="none" xmlns="http://www.w3.org/2000/svg">
<path d="M7.32121 42.6773C17.0848 52.4409 32.9122 52.4409 42.6758 42.6773C52.4394 32.9137 52.4394 17.0863 42.6758 7.32271C32.9122 -2.4409 17.0848 -2.4409 7.32121 7.32271C-2.4404 17.0863 -2.4404 32.9137 7.32121 42.6773ZM18.4108 9.45262L22.1306 13.1725C22.8746 13.9164 23.0326 15.0664 22.5166 15.9844L21.1187 18.4663C20.9508 18.7638 20.8851 19.1083 20.9317 19.4467C20.9783 19.7852 21.1346 20.099 21.3766 20.3402L29.6583 28.6219C29.8997 28.8636 30.2137 29.0195 30.5521 29.0657C30.8906 29.112 31.2349 29.046 31.5322 28.8778L34.0141 27.4799C34.4606 27.2282 34.9773 27.1297 35.4851 27.1994C35.9929 27.2691 36.4639 27.5032 36.826 27.8659L40.5479 31.5877C40.9875 32.0283 41.2344 32.6253 41.2344 33.2477C41.2344 33.8701 40.9875 34.467 40.5479 34.9076L38.7859 36.6695C37.8085 37.6446 36.5366 38.2698 35.1675 38.4481C33.7984 38.6263 32.4088 38.3477 31.2142 37.6555L31.0463 37.5595C23.7447 33.3874 17.6377 27.4092 13.311 20.1982L12.465 18.7862C11.7459 17.5899 11.4477 16.1874 11.6176 14.8019C11.7876 13.4165 12.416 12.1276 13.403 11.1406L15.0909 9.45262C15.3088 9.23445 15.5675 9.06136 15.8524 8.94327C16.1372 8.82518 16.4425 8.76439 16.7508 8.76439C17.0592 8.76439 17.3645 8.82518 17.6493 8.94327C17.9341 9.06136 18.1929 9.23445 18.4108 9.45262Z" fill="#00CD08"/>
</svg>
