<svg width="50" height="50" viewBox="0 0 50 50" fill="none" xmlns="http://www.w3.org/2000/svg">
<g clip-path="url(#clip0_13_468)">
<path d="M50 25C50 11.1929 38.8071 0 25 0C11.1929 0 0 11.1929 0 25C0 38.8071 11.1929 50 25 50C38.8071 50 50 38.8071 50 25Z" fill="#419FD9"/>
<path d="M50 25C50 11.1929 38.8071 0 25 0C11.1929 0 0 11.1929 0 25C0 38.8071 11.1929 50 25 50C38.8071 50 50 38.8071 50 25Z" fill="url(#paint0_linear_13_468)"/>
<path d="M11.4326 24.9087L11.425 24.9118C10.8529 25.144 10.4488 25.3617 10.1897 25.5581C9.91889 25.7635 9.8813 25.888 9.87783 25.9163C9.86756 25.9999 9.88456 26.0485 9.92845 26.1036C9.98749 26.1777 10.1058 26.2711 10.3245 26.3792C10.6623 26.5463 11.1058 26.6888 11.6522 26.8644C11.8347 26.923 12.0287 26.9853 12.2341 27.0535L11.4326 24.9087ZM11.4326 24.9087L11.4401 24.9053M11.4326 24.9087L11.4401 24.9053M11.4401 24.9053C18.7109 21.6711 23.5548 19.5407 25.976 18.5124C29.4406 17.0411 31.5211 16.1827 32.851 15.69C34.1898 15.1939 34.715 15.0899 35.0924 15.0831L35.0833 14.5832L35.0919 15.0831C35.155 15.082 35.279 15.0901 35.4133 15.1229C35.5504 15.1563 35.6606 15.2064 35.7307 15.2643M11.4401 24.9053L35.9484 16.5249M35.9484 16.5249L35.9484 16.5248C35.9761 16.2278 35.94 15.8218 35.9115 15.6516M35.9484 16.5249C35.5754 20.5262 33.9556 30.2765 33.129 34.7876C32.7869 36.6551 32.173 36.962 31.8698 36.9905C31.2964 37.0443 30.7691 36.8571 30.1813 36.5046C29.8862 36.3275 29.5874 36.116 29.2649 35.8821C29.212 35.8438 29.1585 35.8048 29.1043 35.7654C28.8328 35.5677 28.5448 35.358 28.2441 35.1567L28.244 35.1567M35.9484 16.5249L28.244 35.1567M35.9115 15.6516L36.4046 15.5689L35.9115 15.6516C35.9115 15.6516 35.9115 15.6516 35.9115 15.6516ZM35.9115 15.6516C35.8831 15.4826 35.8389 15.354 35.7307 15.2643M35.7307 15.2643C35.7307 15.2643 35.7307 15.2644 35.7308 15.2644L36.0497 14.8793L35.7307 15.2643ZM28.244 35.1567C27.1504 34.4248 26.2948 33.8311 25.4445 33.2399L25.3318 33.1616C24.519 32.5964 23.7013 32.0278 22.6795 31.3404C22.0907 30.9442 21.8112 30.6345 21.6935 30.4043C21.5933 30.2086 21.5981 30.0498 21.6789 29.8618C21.7738 29.6409 21.9715 29.3912 22.2757 29.0752C22.4072 28.9385 22.5493 28.7987 22.7021 28.6483C22.7217 28.6289 22.7415 28.6094 22.7615 28.5897C22.9349 28.4189 23.1191 28.2363 23.3014 28.043C23.3819 27.9576 23.7836 27.5764 24.3588 27.0306C25.0215 26.4016 25.9145 25.5542 26.8119 24.689C27.641 23.8895 28.4662 23.0818 29.0931 22.4389C29.4059 22.1181 29.6742 21.8333 29.8703 21.6087C29.9677 21.497 30.0532 21.3936 30.1188 21.3042C30.1515 21.2597 30.184 21.2122 30.2119 21.1644C30.2349 21.1247 30.2756 21.0504 30.2966 20.959L30.2966 20.9587M28.244 35.1567L30.2966 20.9587M30.2966 20.9587C30.3189 20.8614 30.3276 20.7196 30.3065 20.5745C30.2857 20.4307 30.2237 20.2029 30.0292 20.0265C29.835 19.8503 29.6086 19.8095 29.4427 19.8082C29.2872 19.8069 29.1432 19.8402 29.0677 19.8577L29.0642 19.8585L29.0639 19.8586M30.2966 20.9587L29.0639 19.8586M29.0639 19.8586C28.977 19.8788 28.894 19.9237 28.8636 19.9402L28.8596 19.9424C28.8098 19.9693 28.7496 20.0044 28.6816 20.0455C28.5446 20.1283 28.3579 20.2466 28.1235 20.3986C27.6538 20.7033 26.9796 21.1522 26.1023 21.7443C24.347 22.9289 21.7706 24.692 18.3739 27.033L18.3738 27.033M29.0639 19.8586L18.3738 27.033M18.3738 27.033L18.3706 27.0353M18.3738 27.033L18.3706 27.0353M18.3706 27.0353C17.4208 27.7012 16.6239 27.9793 15.9641 27.9648H15.9641M18.3706 27.0353L15.9641 27.9648M15.9641 27.9648C15.5809 27.9563 14.9782 27.8412 14.2824 27.6631M15.9641 27.9648L14.2824 27.6631M14.2824 27.6631C13.5986 27.488 12.8638 27.2625 12.2341 27.0535L14.2824 27.6631Z" fill="white" stroke="white"/>
</g>
<defs>
<linearGradient id="paint0_linear_13_468" x1="25" y1="0" x2="25" y2="49.6292" gradientUnits="userSpaceOnUse">
<stop stop-color="#2AABEE"/>
<stop offset="1" stop-color="#229ED9"/>
</linearGradient>
<clipPath id="clip0_13_468">
<rect width="50" height="50" fill="white"/>
</clipPath>
</defs>
</svg>
