<svg width="50" height="50" viewBox="0 0 50 50" fill="none" xmlns="http://www.w3.org/2000/svg">
<g clip-path="url(#clip0_31_392)">
<path d="M25 50C38.8071 50 50 38.8071 50 25C50 11.1929 38.8071 0 25 0C11.1929 0 0 11.1929 0 25C0 38.8071 11.1929 50 25 50Z" fill="#F9F9F9"/>
<path fill-rule="evenodd" clip-rule="evenodd" d="M24.0557 35.9643H26.0179C26.0179 35.9643 26.6106 35.8992 26.9132 35.573C27.1917 35.2735 27.1828 34.7111 27.1828 34.7111C27.1828 34.7111 27.1445 32.0782 28.3665 31.6905C29.571 31.3086 31.1179 34.2352 32.7574 35.3604C33.9972 36.2121 34.9393 36.0253 34.9393 36.0253L39.3232 35.9643C39.3232 35.9643 41.6165 35.823 40.5291 34.0199C40.44 33.8724 39.8958 32.6861 37.2696 30.2484C34.5209 27.6971 34.889 28.1097 38.2001 23.6965C40.2167 21.0088 41.0229 19.3679 40.7711 18.6651C40.5309 17.9957 39.0478 18.1727 39.0478 18.1727L34.1118 18.2034C34.1118 18.2034 33.7459 18.1535 33.4745 18.3157C33.2093 18.4748 33.0386 18.8456 33.0386 18.8456C33.0386 18.8456 32.2574 20.9254 31.2155 22.6942C29.0175 26.4265 28.1387 26.6235 27.7795 26.3918C26.9439 25.8516 27.1525 24.2219 27.1525 23.0641C27.1525 19.4472 27.7011 17.9391 26.0843 17.5487C25.5477 17.4191 25.1529 17.3335 23.7807 17.3197C22.0195 17.3014 20.5288 17.325 19.6848 17.7386C19.1233 18.0136 18.6901 18.6263 18.9539 18.6615C19.2801 18.7052 20.019 18.8607 20.4107 19.3942C20.9165 20.0823 20.8987 21.6278 20.8987 21.6278C20.8987 21.6278 21.1893 25.8855 20.22 26.4145C19.5546 26.7772 18.642 26.0366 16.6824 22.6505C15.6784 20.9161 14.9203 18.9989 14.9203 18.9989C14.9203 18.9989 14.7742 18.6406 14.5135 18.449C14.1971 18.2168 13.755 18.1428 13.755 18.1428L9.06452 18.1735C9.06452 18.1735 8.36039 18.1932 8.10192 18.4993C7.87196 18.7716 8.08364 19.3349 8.08364 19.3349C8.08364 19.3349 11.7558 27.9261 15.9137 32.2556C19.7262 36.225 24.0557 35.9643 24.0557 35.9643Z" fill="#F06595"/>
</g>
<defs>
<clipPath id="clip0_31_392">
<rect width="50" height="50" fill="white"/>
</clipPath>
</defs>
</svg>
