<svg width="50" height="50" viewBox="0 0 50 50" fill="none" xmlns="http://www.w3.org/2000/svg">
<g clip-path="url(#clip0_13_474)">
<path d="M25.0063 0H24.9938C11.2094 0 3.28029e-05 11.2125 3.28029e-05 25C-0.00852688 30.2657 1.65831 35.3975 4.75941 39.6531L1.64378 48.9406L11.2532 45.8688C15.3293 48.573 20.1146 50.0105 25.0063 50C38.7907 50 50 38.7844 50 25C50 11.2156 38.7907 0 25.0063 0Z" fill="#4CAF50"/>
<path d="M39.5532 35.3033C38.9501 37.0064 36.5563 38.4189 34.647 38.8314C33.3407 39.1096 31.6345 39.3314 25.8907 36.9502C18.5438 33.9064 13.8126 26.4408 13.4438 25.9564C13.0907 25.4721 10.4751 22.0033 10.4751 18.4158C10.4751 14.8283 12.297 13.0814 13.0313 12.3314C13.6345 11.7158 14.6313 11.4346 15.5876 11.4346C15.897 11.4346 16.1751 11.4502 16.4251 11.4627C17.1595 11.4939 17.5282 11.5377 18.0126 12.6971C18.6157 14.1502 20.0845 17.7377 20.2595 18.1064C20.4376 18.4752 20.6157 18.9752 20.3657 19.4596C20.1313 19.9596 19.9251 20.1814 19.5563 20.6064C19.1876 21.0314 18.8376 21.3564 18.4688 21.8127C18.1313 22.2096 17.7501 22.6346 18.1751 23.3689C18.6001 24.0877 20.0688 26.4846 22.2313 28.4096C25.022 30.8939 27.2845 31.6877 28.0938 32.0252C28.697 32.2752 29.4157 32.2158 29.8563 31.7471C30.4157 31.1439 31.1063 30.1439 31.8095 29.1596C32.3095 28.4533 32.9407 28.3658 33.6032 28.6158C34.2782 28.8502 37.8501 30.6158 38.5845 30.9814C39.3188 31.3502 39.8032 31.5252 39.9813 31.8346C40.1563 32.1439 40.1563 33.5971 39.5532 35.3033Z" fill="#FAFAFA"/>
</g>
<defs>
<clipPath id="clip0_13_474">
<rect width="50" height="50" fill="white"/>
</clipPath>
</defs>
</svg>
