<svg width="50" height="50" viewBox="0 0 50 50" fill="none" xmlns="http://www.w3.org/2000/svg">
<g clip-path="url(#clip0_31_399)">
<path d="M50 25C50 11.1929 38.8071 0 25 0C11.1929 0 0 11.1929 0 25C0 38.8071 11.1929 50 25 50C38.8071 50 50 38.8071 50 25Z" fill="#F9F9F9"/>
<path fill-rule="evenodd" clip-rule="evenodd" d="M37.227 14.7288C38.5655 15.0892 39.6209 16.1446 39.9814 17.4831C40.6506 19.9285 40.6249 25.0253 40.6249 25.0253C40.6249 25.0253 40.6249 30.0963 39.9814 32.5418C39.6209 33.8803 38.5655 34.9357 37.227 35.296C34.7816 35.9396 24.9999 35.9396 24.9999 35.9396C24.9999 35.9396 15.244 35.9396 12.7728 35.2703C11.4343 34.9099 10.3789 33.8546 10.0185 32.516C9.375 30.0963 9.375 24.9996 9.375 24.9996C9.375 24.9996 9.375 19.9285 10.0185 17.4831C10.3789 16.1446 11.46 15.0634 12.7728 14.703C15.2182 14.0596 24.9999 14.0596 24.9999 14.0596C24.9999 14.0596 34.7816 14.0596 37.227 14.7288ZM30.0195 24.9996L21.8852 29.6845V20.3147L30.0195 24.9996Z" fill="#F06595"/>
</g>
<defs>
<clipPath id="clip0_31_399">
<rect width="50" height="50" fill="white"/>
</clipPath>
</defs>
</svg>
